<svg xmlns="http://www.w3.org/2000/svg" width="22" height="22" viewBox="0 0 22 22">
    <defs>
        <style>
            .cls-1{fill:none}.cls-2{clip-path:url(#clip-path)}.cls-3{fill:#fff;opacity:0}.cls-4{fill:#5f46a5}.cls-5{fill:#734fbe}
        </style>
        <clipPath id="clip-path">
            <path d="M0 0h22v22H0z" class="cls-1"/>
        </clipPath>
    </defs>
    <g id="icn_location" class="cls-2">
        <path id="Rectangle_69" d="M0 0h22v22H0z" class="cls-3" data-name="Rectangle 69"/>
        <g id="Group_139" data-name="Group 139" transform="translate(6.124 3.15)">
            <path id="Path_1005" d="M348.318 160.664a.427.427 0 0 1-.3-.126l-2.061-2.061a.429.429 0 1 1 .607-.607l2.061 2.061a.429.429 0 0 1-.3.733z" class="cls-4" data-name="Path 1005" transform="translate(-343.492 -153.302)"/>
            <path id="Path_1006" d="M328.888 168.527a.429.429 0 0 1-.4-.262l-4.4-10.35a.429.429 0 1 1 .79-.336l4.4 10.35a.43.43 0 0 1-.395.6z" class="cls-4" data-name="Path 1006" transform="translate(-324.062 -152.921)"/>
            <path id="Path_1007" d="M348.318 143.521a.429.429 0 0 1-.3-.733l1.757-1.757-1.454-1.454-1.757 1.757a.429.429 0 1 1-.607-.607l2.061-2.061a.429.429 0 0 1 .607 0l2.061 2.061a.429.429 0 0 1 0 .607l-2.061 2.061a.427.427 0 0 1-.307.126z" class="cls-5" data-name="Path 1007" transform="translate(-343.492 -136.159)"/>
            <path id="Path_1008" d="M328.887 131.955a.43.43 0 0 1-.395-.6l4.319-10.168-1.048-2.1-2.876-1.808-2.876 1.808-1.137 2.274a.429.429 0 0 1-.768-.384l1.194-2.377a.43.43 0 0 1 .155-.171l3.206-2.015a.429.429 0 0 1 .457 0l3.206 2.015a.43.43 0 0 1 .155.171l1.191 2.381a.429.429 0 0 1 .011.36l-4.4 10.35a.429.429 0 0 1-.394.264z" class="cls-5" data-name="Path 1008" transform="translate(-324.061 -116.349)"/>
        </g>
    </g>
</svg>
