<svg xmlns="http://www.w3.org/2000/svg" width="393" height="393" viewBox="0 0 393 393">
    <defs>
        <style>
            .cls-1{fill:#734fbe}.cls-2{fill:#fff}
        </style>
    </defs>
    <g id="img_graph_placeholder" transform="translate(-230 -467)">
        <g id="Group_202" data-name="Group 202" transform="translate(268.139 511.772)">
            <g id="Group_177" data-name="Group 177">
                <path id="Path_1073" d="M257.146 688.083a4.146 4.146 0 0 1-2.932-7.077l7.036-7.034a4.145 4.145 0 0 1 5.862 5.862l-7.034 7.036a4.136 4.136 0 0 1-2.932 1.213z" class="cls-1" data-name="Path 1073" transform="translate(-253 -376.337)"/>
                <path id="Path_1074" d="M269.7 776.668a4.145 4.145 0 0 1-2.932-7.076l13.782-13.781a4.145 4.145 0 0 1 5.862 5.862l-13.782 13.782a4.132 4.132 0 0 1-2.93 1.213zm27.56-27.56a4.145 4.145 0 0 1-2.932-7.076l13.782-13.781a4.145 4.145 0 0 1 5.862 5.862l-13.782 13.781a4.13 4.13 0 0 1-2.932 1.215zm27.561-27.561a4.146 4.146 0 0 1-2.932-7.077l13.78-13.778a4.145 4.145 0 0 1 5.862 5.862l-13.778 13.78a4.136 4.136 0 0 1-2.933 1.213zm27.56-27.56a4.146 4.146 0 0 1-2.932-7.077l13.782-13.78a4.145 4.145 0 0 1 5.862 5.862l-13.78 13.781a4.136 4.136 0 0 1-2.934 1.214zm27.56-27.561a4.146 4.146 0 0 1-2.93-7.077l13.78-13.778a4.145 4.145 0 0 1 5.862 5.862l-13.78 13.778a4.131 4.131 0 0 1-2.934 1.215zm27.56-27.56a4.146 4.146 0 0 1-2.93-7.077l13.78-13.78a4.145 4.145 0 0 1 5.862 5.862l-13.78 13.78a4.128 4.128 0 0 1-2.933 1.215zm27.561-27.56a4.146 4.146 0 0 1-2.93-7.077l13.778-13.781a4.146 4.146 0 0 1 5.864 5.863l-13.78 13.78a4.135 4.135 0 0 1-2.934 1.216zm27.561-27.561a4.146 4.146 0 0 1-2.932-7.077l13.78-13.78a4.146 4.146 0 0 1 5.864 5.864l-13.783 13.778a4.134 4.134 0 0 1-2.93 1.215zm27.56-27.561a4.145 4.145 0 0 1-2.932-7.076l13.781-13.781a4.145 4.145 0 0 1 5.862 5.862l-13.782 13.781a4.132 4.132 0 0 1-2.93 1.214zm27.561-27.56a4.145 4.145 0 0 1-2.932-7.076l13.78-13.782a4.145 4.145 0 0 1 5.862 5.862l-13.78 13.781a4.132 4.132 0 0 1-2.931 1.215z" class="cls-1" data-name="Path 1074" transform="translate(-244.737 -485.737)"/>
                <path id="Path_1075" d="M435.9 509.325a4.145 4.145 0 0 1-2.932-7.076l7.034-7.036a4.146 4.146 0 0 1 5.864 5.864l-7.036 7.034a4.132 4.132 0 0 1-2.93 1.214z" class="cls-1" data-name="Path 1075" transform="translate(-135.337 -494)"/>
            </g>
            <g id="Group_178" data-name="Group 178" transform="translate(42.462 240.443)">
                <path id="Path_1076" d="M301.022 641h-13.4l-6.7 11.608 6.7 11.608h13.4l6.7-11.608z" class="cls-2" data-name="Path 1076" transform="translate(-277.086 -637.684)"/>
                <path id="Path_1077" d="M304.455 668.848h-17.229l-8.619-14.924L287.226 639h17.229l8.619 14.924zm-13.4-6.633h9.575l4.786-8.291-4.786-8.291h-9.575l-4.786 8.291z" class="cls-1" data-name="Path 1077" transform="translate(-278.607 -639)"/>
            </g>
            <g id="Group_179" data-name="Group 179" transform="translate(56.874 194.013)">
                <path id="Path_1078" d="M315.457 613h-17.233l-8.616 14.924 8.616 14.924h17.233l8.616-14.924z" class="cls-2" data-name="Path 1078" transform="translate(-285.778 -609.684)"/>
                <path id="Path_1079" d="M318.892 647.481h-21.063L287.3 629.24 297.829 611h21.063l10.531 18.24zm-17.234-6.633h13.405l6.7-11.608-6.7-11.608h-13.405l-6.7 11.608z" class="cls-1" data-name="Path 1079" transform="translate(-287.298 -611)"/>
            </g>
            <g id="Group_180" data-name="Group 180" transform="translate(73.841 142.608)">
                <path id="Path_1080" d="M321.381 582H307.02l-7.18 12.437 7.18 12.437h14.361l7.18-12.437z" class="cls-2" data-name="Path 1080" transform="translate(-296.01 -578.684)"/>
                <path id="Path_1081" d="M324.814 611.506h-18.187l-9.1-15.753 9.1-15.753h18.187l9.1 15.753zm-14.36-6.633h10.533l5.265-9.12-5.265-9.12h-10.533l-5.265 9.12z" class="cls-1" data-name="Path 1081" transform="translate(-297.53 -580)"/>
            </g>
            <g id="Group_181" data-name="Group 181" transform="translate(97.57 102.81)">
                <path id="Path_1082" d="M329.946 558h-10.531l-5.266 9.12 5.266 9.12h10.531l5.266-9.12z" class="cls-2" data-name="Path 1082" transform="translate(-310.32 -554.684)"/>
                <path id="Path_1083" d="M333.382 580.873h-14.364l-7.178-12.437L319.018 556h14.364l7.178 12.437zm-10.533-6.633h6.7l3.35-5.8-3.35-5.8h-6.7l-3.35 5.8z" class="cls-1" data-name="Path 1083" transform="translate(-311.84 -556)"/>
            </g>
            <g id="Group_182" data-name="Group 182" transform="translate(116.066 194.013)">
                <path id="Path_1084" d="M338.228 613h-8.616l-4.308 7.462 4.308 7.462h8.616l4.308-7.462z" class="cls-2" data-name="Path 1084" transform="translate(-321.474 -609.684)"/>
                <path id="Path_1085" d="M341.662 632.557h-12.443l-6.225-10.778L329.219 611h12.443l6.225 10.778zm-8.615-6.633h4.786l2.395-4.146-2.395-4.146h-4.786l-2.394 4.146z" class="cls-1" data-name="Path 1085" transform="translate(-322.994 -611)"/>
            </g>
            <g id="Group_183" data-name="Group 183" transform="translate(107.647 225.519)">
                <path id="Path_1086" d="M334.587 632h-9.574l-4.787 8.291 4.787 8.291h9.574l4.787-8.291z" class="cls-2" data-name="Path 1086" transform="translate(-316.397 -628.684)"/>
                <path id="Path_1087" d="M338.021 653.215h-13.4l-6.7-11.608L324.62 630h13.4l6.7 11.608zm-9.573-6.633h5.744l2.872-4.975-2.872-4.975h-5.744l-2.872 4.975z" class="cls-1" data-name="Path 1087" transform="translate(-317.917 -630)"/>
            </g>
            <g id="Group_184" data-name="Group 184" transform="translate(148.975 167.481)">
                <path id="Path_1088" d="M360.946 597h-10.531l-5.266 9.12 5.266 9.12h10.531l5.266-9.12z" class="cls-2" data-name="Path 1088" transform="translate(-341.32 -593.683)"/>
                <path id="Path_1089" d="M364.382 619.873h-14.364l-7.178-12.437L350.018 595h14.364l7.179 12.437zm-10.533-6.633h6.7l3.35-5.8-3.35-5.8h-6.7l-3.35 5.8z" class="cls-1" data-name="Path 1089" transform="translate(-342.84 -595)"/>
            </g>
            <g id="Group_185" data-name="Group 185" transform="translate(160.583 102.81)">
                <path id="Path_1090" d="M367.946 558h-10.531l-5.266 9.12 5.266 9.12h10.531l5.266-9.12z" class="cls-2" data-name="Path 1090" transform="translate(-348.32 -554.684)"/>
                <path id="Path_1091" d="M371.382 580.873h-14.364l-7.179-12.437L357.018 556h14.364l7.178 12.437zm-10.533-6.633h6.7l3.35-5.8-3.35-5.8h-6.7l-3.35 5.8z" class="cls-1" data-name="Path 1091" transform="translate(-349.84 -556)"/>
            </g>
            <g id="Group_186" data-name="Group 186" transform="translate(161.984 135.975)">
                <path id="Path_1092" d="M371.663 578h-12.446l-6.223 10.778 6.223 10.779h12.446l6.223-10.779z" class="cls-2" data-name="Path 1092" transform="translate(-349.165 -574.684)"/>
                <path id="Path_1093" d="M375.1 604.19h-16.276l-8.139-14.095L358.824 576H375.1l8.139 14.095zm-12.447-6.633h8.619l4.306-7.462-4.306-7.462h-8.619l-4.306 7.462z" class="cls-1" data-name="Path 1093" transform="translate(-350.685 -576)"/>
            </g>
            <g id="Group_187" data-name="Group 187" transform="translate(205.738 112.759)">
                <path id="Path_1094" d="M390.87 564h-7.659l-3.83 6.633 3.83 6.633h7.659l3.83-6.633z" class="cls-2" data-name="Path 1094" transform="translate(-375.55 -560.684)"/>
                <path id="Path_1095" d="M394.3 581.9h-11.483l-5.746-9.949 5.746-9.951H394.3l5.746 9.949zm-7.659-6.633h3.831l1.915-3.316-1.915-3.316h-3.831l-1.915 3.316z" class="cls-1" data-name="Path 1095" transform="translate(-377.071 -562)"/>
            </g>
            <g id="Group_188" data-name="Group 188" transform="translate(202.038 66.329)">
                <path id="Path_1096" d="M392.946 536h-10.531l-5.266 9.12 5.266 9.12h10.531l5.266-9.12z" class="cls-2" data-name="Path 1096" transform="translate(-373.32 -532.684)"/>
                <path id="Path_1097" d="M396.382 558.873h-14.364l-7.178-12.437L382.018 534h14.364l7.179 12.437zm-10.533-6.633h6.7l3.35-5.8-3.35-5.8h-6.7l-3.35 5.8z" class="cls-1" data-name="Path 1097" transform="translate(-374.84 -534)"/>
            </g>
            <g id="Group_189" data-name="Group 189" transform="translate(27.163 217.228)">
                <path id="Path_1098" d="M277.435 627h-3.829l-1.915 3.316 1.915 3.317h3.829l1.915-3.317z" class="cls-2" data-name="Path 1098" transform="translate(-267.861 -623.684)"/>
                <path id="Path_1099" d="M280.869 638.266h-7.656l-3.831-6.633 3.83-6.633h7.656l3.831 6.633z" class="cls-1" data-name="Path 1099" transform="translate(-269.381 -625)"/>
            </g>
            <g id="Group_190" data-name="Group 190" transform="translate(36.599 182.405)">
                <path id="Path_1100" d="M288.87 606h-7.659l-3.83 6.633 3.83 6.633h7.659l3.83-6.633z" class="cls-2" data-name="Path 1100" transform="translate(-273.55 -602.684)"/>
                <path id="Path_1101" d="M292.3 623.9h-11.483l-5.746-9.949 5.746-9.951H292.3l5.746 9.949zm-7.659-6.633h3.831l1.915-3.316-1.915-3.316h-3.831l-1.915 3.316z" class="cls-1" data-name="Path 1101" transform="translate(-275.071 -604)"/>
            </g>
            <g id="Group_191" data-name="Group 191" transform="translate(154.966 66.329)">
                <path id="Path_1102" d="M371.739 536h-15.318l-7.659 13.266 7.659 13.266h15.318l7.659-13.266z" class="cls-2" data-name="Path 1102" transform="translate(-344.933 -532.684)"/>
                <path id="Path_1103" d="M375.173 567.165h-19.145l-9.575-16.582L356.028 534h19.146l9.575 16.582zm-15.319-6.633h11.492l5.742-9.949-5.742-9.949h-11.491l-5.742 9.949z" class="cls-1" data-name="Path 1103" transform="translate(-346.453 -534)"/>
            </g>
            <g id="Group_192" data-name="Group 192" transform="translate(204.338 92.861)">
                <path id="Path_1104" d="M387.152 552h-5.744l-2.872 4.975 2.872 4.975h5.744l2.872-4.975z" class="cls-2" data-name="Path 1104" transform="translate(-374.707 -548.684)"/>
                <path id="Path_1105" d="M390.589 566.582h-9.578l-4.784-8.291 4.784-8.291h9.578l4.784 8.291zm-5.746-6.633h1.914l.957-1.658-.957-1.658h-1.914l-.957 1.658z" class="cls-1" data-name="Path 1105" transform="translate(-376.227 -550)"/>
            </g>
            <g id="Group_193" data-name="Group 193" transform="translate(240.69 82.911)">
                <path id="Path_1106" d="M410.511 546h-6.7l-3.351 5.8 3.351 5.8h6.7l3.351-5.8z" class="cls-2" data-name="Path 1106" transform="translate(-396.629 -542.684)"/>
                <path id="Path_1107" d="M413.945 562.24h-10.53l-5.267-9.12 5.267-9.12h10.53l5.267 9.12zm-6.7-6.633h2.872l1.434-2.487-1.434-2.487h-2.872l-1.434 2.487z" class="cls-1" data-name="Path 1107" transform="translate(-398.149 -544)"/>
            </g>
            <g id="Group_194" data-name="Group 194" transform="translate(226.27 33.165)">
                <path id="Path_1108" d="M414.739 516h-15.318l-7.659 13.266 7.659 13.266h15.318l7.659-13.266z" class="cls-2" data-name="Path 1108" transform="translate(-387.933 -512.684)"/>
                <path id="Path_1109" d="M418.174 547.165h-19.146l-9.575-16.582L399.028 514h19.146l9.575 16.582zm-15.319-6.633h11.492l5.742-9.949-5.742-9.949h-11.492l-5.742 9.949z" class="cls-1" data-name="Path 1109" transform="translate(-389.453 -514)"/>
            </g>
            <g id="Group_195" data-name="Group 195" transform="translate(227.554 122.709)">
                <path id="Path_1110" d="M401.152 570h-5.744l-2.872 4.975 2.872 4.975h5.744l2.872-4.975z" class="cls-2" data-name="Path 1110" transform="translate(-388.707 -566.683)"/>
                <path id="Path_1111" d="M404.589 584.582h-9.578l-4.784-8.291 4.784-8.291h9.578l4.784 8.291zm-5.746-6.633h1.914l.957-1.658-.957-1.658h-1.914l-.957 1.658z" class="cls-1" data-name="Path 1111" transform="translate(-390.227 -568)"/>
            </g>
            <g id="Group_196" data-name="Group 196" transform="translate(187.37 167.481)">
                <path id="Path_1112" d="M381.228 597h-8.616l-4.308 7.462 4.308 7.462h8.616l4.308-7.462z" class="cls-2" data-name="Path 1112" transform="translate(-364.474 -593.683)"/>
                <path id="Path_1113" d="M384.662 616.557h-12.443l-6.225-10.779L372.219 595h12.443l6.225 10.778zm-8.615-6.633h4.786l2.394-4.146-2.394-4.146h-4.786l-2.394 4.146z" class="cls-1" data-name="Path 1113" transform="translate(-365.994 -595)"/>
            </g>
            <g id="Group_197" data-name="Group 197" transform="translate(149.488 205.62)">
                <path id="Path_1114" d="M355.511 620h-6.7l-3.351 5.8 3.351 5.8h6.7l3.351-5.8z" class="cls-2" data-name="Path 1114" transform="translate(-341.629 -616.683)"/>
                <path id="Path_1115" d="M358.945 636.24h-10.53l-5.267-9.12 5.267-9.12h10.53l5.267 9.12zm-6.7-6.633h2.872l1.434-2.487-1.434-2.487h-2.872l-1.434 2.487z" class="cls-1" data-name="Path 1115" transform="translate(-343.149 -618)"/>
            </g>
            <g id="Group_198" data-name="Group 198" transform="translate(101.656 182.405)">
                <path id="Path_1116" d="M323.794 606h-4.787l-2.393 4.146 2.393 4.146h4.787l2.393-4.146z" class="cls-2" data-name="Path 1116" transform="translate(-312.784 -602.684)"/>
                <path id="Path_1117" d="M327.228 618.924h-8.616l-4.308-7.462 4.308-7.462h8.616l4.308 7.462zm-4.787-6.633h.958l.478-.829-.478-.829h-.958l-.478.829z" class="cls-1" data-name="Path 1117" transform="translate(-314.304 -604)"/>
            </g>
            <g id="Group_199" data-name="Group 199" transform="translate(117.212 129.342)">
                <path id="Path_1118" d="M344.663 574h-12.446l-6.223 10.778 6.223 10.778h12.446l6.223-10.778z" class="cls-2" data-name="Path 1118" transform="translate(-322.165 -570.684)"/>
                <path id="Path_1119" d="M348.1 600.19h-16.276l-8.139-14.095L331.824 572H348.1l8.139 14.095zm-12.447-6.633h8.619l4.306-7.462-4.306-7.462h-8.619l-4.306 7.462z" class="cls-1" data-name="Path 1119" transform="translate(-323.685 -572)"/>
            </g>
            <g id="Group_200" data-name="Group 200" transform="translate(136.351 94.519)">
                <path id="Path_1120" d="M346.152 553h-5.744l-2.872 4.975 2.872 4.975h5.744l2.872-4.975z" class="cls-2" data-name="Path 1120" transform="translate(-333.707 -549.684)"/>
                <path id="Path_1121" d="M349.589 567.582h-9.578l-4.784-8.291 4.784-8.291h9.578l4.784 8.291zm-5.746-6.633h1.914l.957-1.658-.957-1.658h-1.914l-.957 1.658z" class="cls-1" data-name="Path 1121" transform="translate(-335.227 -551)"/>
            </g>
            <g id="Group_201" data-name="Group 201" transform="translate(122.699 170.797)">
                <path id="Path_1122" d="M342.228 599h-8.616l-4.308 7.462 4.308 7.462h8.616l4.308-7.462z" class="cls-2" data-name="Path 1122" transform="translate(-325.474 -595.684)"/>
                <path id="Path_1123" d="M345.662 618.557h-12.443l-6.225-10.779L333.219 597h12.443l6.225 10.779zm-8.615-6.633h4.786l2.394-4.146-2.394-4.146h-4.786l-2.394 4.146z" class="cls-1" data-name="Path 1123" transform="translate(-326.994 -597)"/>
            </g>
        </g>
        <path id="Path_1124" d="M618.854 860H234.146a4.145 4.145 0 0 1-4.146-4.146V471.146a4.146 4.146 0 1 1 8.291 0v380.563h380.563a4.146 4.146 0 1 1 0 8.291z" class="cls-1" data-name="Path 1124"/>
    </g>
</svg>
